<?xml version="1.0" standalone="no"?>
<!DOCTYPE svg PUBLIC "-//W3C//DTD SVG 20010904//EN"
 "http://www.w3.org/TR/2001/REC-SVG-20010904/DTD/svg10.dtd">
<svg version="1.0" xmlns="http://www.w3.org/2000/svg"
 width="127.000000pt" height="127.000000pt" viewBox="0 0 127.000000 127.000000"
 preserveAspectRatio="xMidYMid meet">
<metadata>
Created by potrace 1.11, written by Peter Selinger 2001-2013
</metadata>
<g transform="translate(0.000000,127.000000) scale(0.100000,-0.100000)"
fill="#000000" stroke="none">
<path d="M671 1204 c0 -11 3 -14 6 -6 3 7 2 16 -1 19 -3 4 -6 -2 -5 -13z"/>
<path d="M678 1129 c-6 -55 -22 -92 -73 -174 -69 -109 -84 -159 -64 -215 7
-22 8 -20 6 12 -2 21 -1 35 2 32 3 -2 13 12 23 33 11 23 15 39 8 41 -5 2 -10
8 -10 14 0 6 6 6 15 -2 12 -10 19 -4 45 36 60 94 81 184 61 254 -6 20 -9 14
-13 -31z m9 -51 c-3 -8 -6 -5 -6 6 -1 11 2 17 5 13 3 -3 4 -12 1 -19z m-36
-101 c-13 -13 -15 1 -4 30 7 17 8 17 11 -1 2 -10 -1 -23 -7 -29z"/>
<path d="M780 1019 c0 -17 -44 -85 -83 -129 -15 -17 -25 -36 -21 -42 4 -6 3
-8 -4 -4 -12 7 -54 -42 -49 -58 2 -6 -2 -17 -10 -24 -7 -7 -13 -30 -12 -50 l0
-37 13 40 c19 61 40 95 95 155 47 51 92 143 77 157 -3 4 -6 0 -6 -8z"/>
<path d="M669 777 c-15 -27 -2 -33 80 -40 93 -8 173 -33 202 -63 30 -32 20
-50 -42 -82 -62 -31 -151 -44 -295 -44 -129 0 -212 13 -286 44 -107 46 -56
111 110 140 65 11 72 14 72 35 0 28 -16 29 -112 8 -84 -17 -150 -46 -183 -79
-32 -32 -33 -86 -4 -198 65 -257 207 -392 419 -399 100 -3 107 1 32 21 -152
40 -249 116 -314 246 -23 46 -39 87 -35 90 3 3 17 -16 30 -43 40 -78 110 -148
184 -185 208 -102 406 9 497 279 13 40 29 69 38 71 26 5 48 -27 48 -70 0 -32
-6 -46 -31 -69 -17 -16 -37 -29 -44 -29 -7 0 -22 -16 -34 -35 -11 -19 -19 -35
-17 -35 18 0 97 36 123 56 45 34 63 73 63 134 0 44 -5 56 -29 81 -17 16 -40
29 -54 29 -18 0 -31 10 -45 34 -12 19 -38 44 -60 55 -49 25 -178 58 -250 64
-45 4 -54 1 -63 -16z"/>
</g>
</svg>
